<svg width="26" height="27" viewBox="0 0 26 27" fill="none" xmlns="http://www.w3.org/2000/svg">
<path d="M13 0.5C10.4288 0.5 7.91543 1.26244 5.77759 2.69089C3.63975 4.11935 1.97351 6.14967 0.989572 8.52511C0.0056327 10.9006 -0.251811 13.5144 0.249797 16.0362C0.751405 18.5579 1.98953 20.8743 3.80762 22.6924C5.6257 24.5105 7.94208 25.7486 10.4638 26.2502C12.9856 26.7518 15.5994 26.4944 17.9749 25.5104C20.3503 24.5265 22.3806 22.8602 23.8091 20.7224C25.2376 18.5846 26 16.0712 26 13.5C25.9964 10.0533 24.6256 6.74881 22.1884 4.31163C19.7512 1.87445 16.4467 0.50364 13 0.5ZM23.9562 12.5225C23.6379 12.5075 23.3192 12.5 23 12.5C21.145 12.5005 19.2982 12.746 17.5075 13.23C17.0709 11.9345 16.5078 10.6851 15.8263 9.5C17.6037 8.42814 19.2128 7.09917 20.6012 5.55625C22.5278 7.39433 23.7202 9.87025 23.9562 12.5225ZM19.035 4.3075C17.7859 5.67998 16.3422 6.86173 14.75 7.815C13.4165 5.93802 11.7854 4.29136 9.92125 2.94C11.4505 2.49356 13.0585 2.38463 14.6341 2.62074C16.2096 2.85686 17.715 3.43238 19.0463 4.3075H19.035ZM7.70625 3.86C9.7495 5.14674 11.5308 6.80847 12.9563 8.7575C10.4615 9.90731 7.74694 10.5018 5 10.5C4.15221 10.4996 3.30537 10.4432 2.46501 10.3312C3.3012 7.57313 5.18202 5.25093 7.70625 3.86ZM2.00001 13.5C1.99995 13.0974 2.02207 12.6951 2.06626 12.295C3.03822 12.4315 4.01851 12.5 5 12.5C8.13693 12.503 11.2346 11.8024 14.065 10.45C14.6886 11.5269 15.204 12.6628 15.6038 13.8412C14.5415 14.2403 13.5135 14.7252 12.53 15.2912C9.78634 16.8763 7.43383 19.0575 5.64625 21.6737C4.49833 20.644 3.58032 19.3838 2.95206 17.9754C2.3238 16.5671 1.9994 15.0421 2.00001 13.5ZM7.25 22.875C8.87295 20.4746 11.0204 18.4746 13.53 17.0262C14.369 16.542 15.2446 16.1241 16.1488 15.7762C16.4582 17.1493 16.6145 18.5525 16.615 19.96C16.6157 21.3284 16.4694 22.6929 16.1788 24.03C14.6933 24.4788 13.1296 24.6078 11.5907 24.4088C10.0517 24.2097 8.57239 23.687 7.25 22.875ZM18.3825 23.0912C18.5368 22.0567 18.6145 21.0122 18.615 19.9662C18.6148 18.3473 18.4282 16.7337 18.0588 15.1575C19.6699 14.7227 21.3312 14.5017 23 14.5C23.3167 14.5 23.6338 14.5079 23.9513 14.5237C23.7838 16.2952 23.1898 17.9997 22.22 19.4915C21.2502 20.9833 19.9335 22.218 18.3825 23.09V23.0912Z" fill="white"/>
</svg>
