<svg width="26" height="27" viewBox="0 0 26 27" fill="none" xmlns="http://www.w3.org/2000/svg">
<path d="M24 0.5H2C1.46957 0.5 0.960859 0.710714 0.585786 1.08579C0.210714 1.46086 0 1.96957 0 2.5V24.5C0 25.0304 0.210714 25.5391 0.585786 25.9142C0.960859 26.2893 1.46957 26.5 2 26.5H24C24.5304 26.5 25.0391 26.2893 25.4142 25.9142C25.7893 25.5391 26 25.0304 26 24.5V2.5C26 1.96957 25.7893 1.46086 25.4142 1.08579C25.0391 0.710714 24.5304 0.5 24 0.5ZM24 24.5H2V2.5H24V24.5ZM9 11.5V19.5C9 19.7652 8.89464 20.0196 8.70711 20.2071C8.51957 20.3946 8.26522 20.5 8 20.5C7.73478 20.5 7.48043 20.3946 7.29289 20.2071C7.10536 20.0196 7 19.7652 7 19.5V11.5C7 11.2348 7.10536 10.9804 7.29289 10.7929C7.48043 10.6054 7.73478 10.5 8 10.5C8.26522 10.5 8.51957 10.6054 8.70711 10.7929C8.89464 10.9804 9 11.2348 9 11.5ZM20 15V19.5C20 19.7652 19.8946 20.0196 19.7071 20.2071C19.5196 20.3946 19.2652 20.5 19 20.5C18.7348 20.5 18.4804 20.3946 18.2929 20.2071C18.1054 20.0196 18 19.7652 18 19.5V15C18 14.337 17.7366 13.7011 17.2678 13.2322C16.7989 12.7634 16.163 12.5 15.5 12.5C14.837 12.5 14.2011 12.7634 13.7322 13.2322C13.2634 13.7011 13 14.337 13 15V19.5C13 19.7652 12.8946 20.0196 12.7071 20.2071C12.5196 20.3946 12.2652 20.5 12 20.5C11.7348 20.5 11.4804 20.3946 11.2929 20.2071C11.1054 20.0196 11 19.7652 11 19.5V11.5C11.0012 11.2551 11.0923 11.0191 11.256 10.8369C11.4197 10.6546 11.6446 10.5388 11.888 10.5114C12.1314 10.4839 12.3764 10.5468 12.5765 10.688C12.7767 10.8292 12.918 11.039 12.9738 11.2775C13.6502 10.8186 14.4389 10.5526 15.2552 10.5081C16.0714 10.4637 16.8844 10.6424 17.6067 11.0251C18.329 11.4078 18.9335 11.98 19.3551 12.6803C19.7768 13.3806 19.9997 14.1825 20 15ZM9.5 8C9.5 8.29667 9.41203 8.58668 9.2472 8.83335C9.08238 9.08003 8.84811 9.27229 8.57403 9.38582C8.29994 9.49935 7.99834 9.52906 7.70736 9.47118C7.41639 9.4133 7.14912 9.27044 6.93934 9.06066C6.72956 8.85088 6.5867 8.58361 6.52882 8.29264C6.47094 8.00166 6.50065 7.70006 6.61418 7.42597C6.72771 7.15189 6.91997 6.91762 7.16665 6.7528C7.41332 6.58797 7.70333 6.5 8 6.5C8.39782 6.5 8.77936 6.65804 9.06066 6.93934C9.34196 7.22064 9.5 7.60218 9.5 8Z" fill="white"/>
</svg>
