<svg width="26" height="25" viewBox="0 0 26 25" fill="none" xmlns="http://www.w3.org/2000/svg">
<path d="M25.555 8.66815L13.555 0.66815C13.3907 0.558511 13.1975 0.5 13 0.5C12.8025 0.5 12.6093 0.558511 12.445 0.66815L0.445 8.66815C0.308014 8.75954 0.195718 8.88336 0.118087 9.02859C0.0404564 9.17382 -0.000106749 9.33597 2.10981e-07 9.50065V22.5007C2.10981e-07 23.0311 0.210714 23.5398 0.585787 23.9149C0.960859 24.2899 1.46957 24.5007 2 24.5007H24C24.5304 24.5007 25.0391 24.2899 25.4142 23.9149C25.7893 23.5398 26 23.0311 26 22.5007V9.50065C26.0001 9.33597 25.9595 9.17382 25.8819 9.02859C25.8043 8.88336 25.692 8.75954 25.555 8.66815ZM9.09 16.5007L2 21.5007V11.4419L9.09 16.5007ZM11.1362 17.5007H14.8638L21.9425 22.5007H4.0575L11.1362 17.5007ZM16.91 16.5007L24 11.4419V21.5007L16.91 16.5007ZM13 2.7019L23.2388 9.52815L14.8638 15.5006H11.1388L2.76375 9.52815L13 2.7019Z" fill="white"/>
</svg>
