<svg width="32" height="33" viewBox="0 0 32 33" fill="none" xmlns="http://www.w3.org/2000/svg">
<path d="M23.9294 10.4893C20.9382 10.4893 18.6807 12.4646 17.7777 15.5687C16.3668 13.3676 15.238 10.8844 14.6172 8.73975H11.4567V17.036C11.4567 18.6727 10.1022 20.0272 8.46556 20.0272C6.82887 20.0272 5.47438 18.6727 5.47438 17.036V8.79618H2.42676V17.0925C2.42676 20.5352 5.19219 23.3006 8.57843 23.3006C11.9647 23.3006 14.7301 20.5352 14.7301 17.0925V15.6815C15.3509 16.9232 16.141 18.2777 16.9876 19.4628L15.0123 28.6621H18.2292L19.5837 21.9461C20.8253 22.7362 22.2363 23.1877 23.9294 23.1877C27.3721 23.1877 30.194 20.3658 30.194 16.7539C30.194 13.3112 27.3721 10.4893 23.9294 10.4893ZM23.9294 20.0272C22.6878 20.0272 21.3897 19.4628 20.3738 18.6163L20.7125 17.3747V17.3182C20.9382 15.9637 21.6719 13.7062 23.9858 13.7062C25.7354 13.7062 27.1463 15.1172 27.1463 16.8667C27.0899 18.6163 25.5661 20.0272 23.9294 20.0272Z" fill="white"/>
</svg>
